{
    "asset" : {
        "generator" : "Khronos glTF Blender I/O v1.5.17",
        "version" : "2.0"
    },
    "scene" : 0,
    "scenes" : [
        {
            "name" : "Scene",
            "nodes" : [
                0,
                1,
                2,
                3,
                4,
                5,
                6,
                7,
                8,
                9,
                10
            ]
        }
    ],
    "nodes" : [
        {
            "mesh" : 0,
            "name" : "003 Guidence"
        },
        {
            "mesh" : 1,
            "name" : "004 Lev Engine"
        },
        {
            "mesh" : 2,
            "name" : "006 Secondary Brakes"
        },
        {
            "mesh" : 3,
            "name" : "005 Motor"
        },
        {
            "mesh" : 4,
            "name" : "007 Tube"
        },
        {
            "mesh" : 5,
            "name" : "011 Tube Secondary Brakes"
        },
        {
            "mesh" : 6,
            "name" : "008 Tube Guidance"
        },
        {
            "mesh" : 7,
            "name" : "010 Tube Motor"
        },
        {
            "mesh" : 8,
            "name" : "009 Tube Lev Engine"
        },
        {
            "mesh" : 9,
            "name" : "008 Tube Guidance Iso"
        },
        {
            "mesh" : 10,
            "name" : "013 Tube Ring"
        }
    ],
    "materials" : [
        {
            "doubleSided" : true,
            "name" : "Material",
            "pbrMetallicRoughness" : {
                "baseColorFactor" : [
                    0.800000011920929,
                    0.800000011920929,
                    0.800000011920929,
                    1
                ],
                "metallicFactor" : 0,
                "roughnessFactor" : 0.5
            }
        }
    ],
    "meshes" : [
        {
            "name" : "003 Guidence",
            "primitives" : [
                {
                    "attributes" : {
                        "POSITION" : 0,
                        "NORMAL" : 1,
                        "TEXCOORD_0" : 2
                    },
                    "indices" : 3,
                    "material" : 0
                }
            ]
        },
        {
            "name" : "004 Lev Engine",
            "primitives" : [
                {
                    "attributes" : {
                        "POSITION" : 4,
                        "NORMAL" : 5,
                        "TEXCOORD_0" : 6
                    },
                    "indices" : 7,
                    "material" : 0
                }
            ]
        },
        {
            "name" : "006 Secondary Brakes",
            "primitives" : [
                {
                    "attributes" : {
                        "POSITION" : 8,
                        "NORMAL" : 9,
                        "TEXCOORD_0" : 10
                    },
                    "indices" : 11,
                    "material" : 0
                }
            ]
        },
        {
            "name" : "005 Motor",
            "primitives" : [
                {
                    "attributes" : {
                        "POSITION" : 12,
                        "NORMAL" : 13,
                        "TEXCOORD_0" : 14
                    },
                    "indices" : 15,
                    "material" : 0
                }
            ]
        },
        {
            "name" : "007 Tube",
            "primitives" : [
                {
                    "attributes" : {
                        "POSITION" : 16,
                        "NORMAL" : 17,
                        "TEXCOORD_0" : 18
                    },
                    "indices" : 19,
                    "material" : 0
                }
            ]
        },
        {
            "name" : "011 Tube Secondary Brakes",
            "primitives" : [
                {
                    "attributes" : {
                        "POSITION" : 20,
                        "NORMAL" : 21,
                        "TEXCOORD_0" : 22
                    },
                    "indices" : 23,
                    "material" : 0
                }
            ]
        },
        {
            "name" : "008 Tube Guidance",
            "primitives" : [
                {
                    "attributes" : {
                        "POSITION" : 24,
                        "NORMAL" : 25,
                        "TEXCOORD_0" : 26
                    },
                    "indices" : 27,
                    "material" : 0
                }
            ]
        },
        {
            "name" : "010 Tube Motor",
            "primitives" : [
                {
                    "attributes" : {
                        "POSITION" : 28,
                        "NORMAL" : 29,
                        "TEXCOORD_0" : 30
                    },
                    "indices" : 31,
                    "material" : 0
                }
            ]
        },
        {
            "name" : "009 Tube Lev Engine",
            "primitives" : [
                {
                    "attributes" : {
                        "POSITION" : 32,
                        "NORMAL" : 33,
                        "TEXCOORD_0" : 34
                    },
                    "indices" : 35,
                    "material" : 0
                }
            ]
        },
        {
            "name" : "008 Tube Guidance Iso",
            "primitives" : [
                {
                    "attributes" : {
                        "POSITION" : 36,
                        "NORMAL" : 37,
                        "TEXCOORD_0" : 38
                    },
                    "indices" : 39,
                    "material" : 0
                }
            ]
        },
        {
            "name" : "013 Tube Ring",
            "primitives" : [
                {
                    "attributes" : {
                        "POSITION" : 40,
                        "NORMAL" : 41,
                        "TEXCOORD_0" : 42
                    },
                    "indices" : 43,
                    "material" : 0
                }
            ]
        }
    ],
    "accessors" : [
        {
            "bufferView" : 0,
            "componentType" : 5126,
            "count" : 5568,
            "max" : [
                5.753416061401367,
                0.38396739959716797,
                2.3510172367095947
            ],
            "min" : [
                -5.695742607116699,
                0.09128817915916443,
                -2.3723416328430176
            ],
            "type" : "VEC3"
        },
        {
            "bufferView" : 1,
            "componentType" : 5126,
            "count" : 5568,
            "type" : "VEC3"
        },
        {
            "bufferView" : 2,
            "componentType" : 5126,
            "count" : 5568,
            "type" : "VEC2"
        },
        {
            "bufferView" : 3,
            "componentType" : 5123,
            "count" : 16704,
            "type" : "SCALAR"
        },
        {
            "bufferView" : 4,
            "componentType" : 5126,
            "count" : 19584,
            "max" : [
                4.737124443054199,
                1.1610589027404785,
                1.3016483783721924
            ],
            "min" : [
                -4.178570747375488,
                1.0644207000732422,
                -1.3229725360870361
            ],
            "type" : "VEC3"
        },
        {
            "bufferView" : 5,
            "componentType" : 5126,
            "count" : 19584,
            "type" : "VEC3"
        },
        {
            "bufferView" : 6,
            "componentType" : 5126,
            "count" : 19584,
            "type" : "VEC2"
        },
        {
            "bufferView" : 7,
            "componentType" : 5123,
            "count" : 58080,
            "type" : "SCALAR"
        },
        {
            "bufferView" : 8,
            "componentType" : 5126,
            "count" : 2916,
            "max" : [
                1.5975964069366455,
                1.2070934772491455,
                0.34991025924682617
            ],
            "min" : [
                -1.5220078229904175,
                1.0547046661376953,
                -0.3712339997291565
            ],
            "type" : "VEC3"
        },
        {
            "bufferView" : 9,
            "componentType" : 5126,
            "count" : 2916,
            "type" : "VEC3"
        },
        {
            "bufferView" : 10,
            "componentType" : 5126,
            "count" : 2916,
            "type" : "VEC2"
        },
        {
            "bufferView" : 11,
            "componentType" : 5123,
            "count" : 8724,
            "type" : "SCALAR"
        },
        {
            "bufferView" : 12,
            "componentType" : 5126,
            "count" : 192,
            "max" : [
                3.320652484893799,
                0.9508086442947388,
                1.7443784475326538
            ],
            "min" : [
                -3.0946974754333496,
                0.8671090602874756,
                -1.765702247619629
            ],
            "type" : "VEC3"
        },
        {
            "bufferView" : 13,
            "componentType" : 5126,
            "count" : 192,
            "type" : "VEC3"
        },
        {
            "bufferView" : 14,
            "componentType" : 5126,
            "count" : 192,
            "type" : "VEC2"
        },
        {
            "bufferView" : 15,
            "componentType" : 5123,
            "count" : 288,
            "type" : "SCALAR"
        },
        {
            "bufferView" : 16,
            "componentType" : 5126,
            "count" : 99,
            "max" : [
                8.532829284667969,
                1.3787535429000854,
                2.5148041248321533
            ],
            "min" : [
                -8.532829284667969,
                -3.4888715744018555,
                -2.5148041248321533
            ],
            "type" : "VEC3"
        },
        {
            "bufferView" : 17,
            "componentType" : 5126,
            "count" : 99,
            "type" : "VEC3"
        },
        {
            "bufferView" : 18,
            "componentType" : 5126,
            "count" : 99,
            "type" : "VEC2"
        },
        {
            "bufferView" : 19,
            "componentType" : 5123,
            "count" : 384,
            "type" : "SCALAR"
        },
        {
            "bufferView" : 20,
            "componentType" : 5126,
            "count" : 42,
            "max" : [
                8.532829284667969,
                1.3767321109771729,
                0.4394451379776001
            ],
            "min" : [
                -8.532829284667969,
                1.2654157876968384,
                -0.4394451379776001
            ],
            "type" : "VEC3"
        },
        {
            "bufferView" : 21,
            "componentType" : 5126,
            "count" : 42,
            "type" : "VEC3"
        },
        {
            "bufferView" : 22,
            "componentType" : 5126,
            "count" : 42,
            "type" : "VEC2"
        },
        {
            "bufferView" : 23,
            "componentType" : 5123,
            "count" : 96,
            "type" : "SCALAR"
        },
        {
            "bufferView" : 24,
            "componentType" : 5126,
            "count" : 156,
            "max" : [
                8.532829284667969,
                0.4234752058982849,
                2.5116922855377197
            ],
            "min" : [
                -8.532829284667969,
                0.07464456558227539,
                -2.5116922855377197
            ],
            "type" : "VEC3"
        },
        {
            "bufferView" : 25,
            "componentType" : 5126,
            "count" : 156,
            "type" : "VEC3"
        },
        {
            "bufferView" : 26,
            "componentType" : 5126,
            "count" : 156,
            "type" : "VEC2"
        },
        {
            "bufferView" : 27,
            "componentType" : 5123,
            "count" : 336,
            "type" : "SCALAR"
        },
        {
            "bufferView" : 28,
            "componentType" : 5126,
            "count" : 180,
            "max" : [
                8.532829284667969,
                1.1022948026657104,
                2.4921951293945312
            ],
            "min" : [
                -8.532829284667969,
                0.7257593870162964,
                -2.4921951293945312
            ],
            "type" : "VEC3"
        },
        {
            "bufferView" : 29,
            "componentType" : 5126,
            "count" : 180,
            "type" : "VEC3"
        },
        {
            "bufferView" : 30,
            "componentType" : 5126,
            "count" : 180,
            "type" : "VEC2"
        },
        {
            "bufferView" : 31,
            "componentType" : 5123,
            "count" : 408,
            "type" : "SCALAR"
        },
        {
            "bufferView" : 32,
            "componentType" : 5126,
            "count" : 148,
            "max" : [
                8.532829284667969,
                1.376516342163086,
                1.3232431411743164
            ],
            "min" : [
                -8.532829284667969,
                1.2149622440338135,
                -1.3232431411743164
            ],
            "type" : "VEC3"
        },
        {
            "bufferView" : 33,
            "componentType" : 5126,
            "count" : 148,
            "type" : "VEC3"
        },
        {
            "bufferView" : 34,
            "componentType" : 5126,
            "count" : 148,
            "type" : "VEC2"
        },
        {
            "bufferView" : 35,
            "componentType" : 5123,
            "count" : 336,
            "type" : "SCALAR"
        },
        {
            "bufferView" : 36,
            "componentType" : 5126,
            "count" : 78,
            "max" : [
                8.532829284667969,
                0.4234752058982849,
                -2.3904459476470947
            ],
            "min" : [
                -8.532829284667969,
                0.07464456558227539,
                -2.5116922855377197
            ],
            "type" : "VEC3"
        },
        {
            "bufferView" : 37,
            "componentType" : 5126,
            "count" : 78,
            "type" : "VEC3"
        },
        {
            "bufferView" : 38,
            "componentType" : 5126,
            "count" : 78,
            "type" : "VEC2"
        },
        {
            "bufferView" : 39,
            "componentType" : 5123,
            "count" : 168,
            "type" : "SCALAR"
        },
        {
            "bufferView" : 40,
            "componentType" : 5126,
            "count" : 790,
            "max" : [
                0.11552637815475464,
                1.3771038055419922,
                2.5105297565460205
            ],
            "min" : [
                -0.11552637815475464,
                -3.484696865081787,
                -2.5105297565460205
            ],
            "type" : "VEC3"
        },
        {
            "bufferView" : 41,
            "componentType" : 5126,
            "count" : 790,
            "type" : "VEC3"
        },
        {
            "bufferView" : 42,
            "componentType" : 5126,
            "count" : 790,
            "type" : "VEC2"
        },
        {
            "bufferView" : 43,
            "componentType" : 5123,
            "count" : 3072,
            "type" : "SCALAR"
        }
    ],
    "bufferViews" : [
        {
            "buffer" : 0,
            "byteLength" : 66816,
            "byteOffset" : 0
        },
        {
            "buffer" : 0,
            "byteLength" : 66816,
            "byteOffset" : 66816
        },
        {
            "buffer" : 0,
            "byteLength" : 44544,
            "byteOffset" : 133632
        },
        {
            "buffer" : 0,
            "byteLength" : 33408,
            "byteOffset" : 178176
        },
        {
            "buffer" : 0,
            "byteLength" : 235008,
            "byteOffset" : 211584
        },
        {
            "buffer" : 0,
            "byteLength" : 235008,
            "byteOffset" : 446592
        },
        {
            "buffer" : 0,
            "byteLength" : 156672,
            "byteOffset" : 681600
        },
        {
            "buffer" : 0,
            "byteLength" : 116160,
            "byteOffset" : 838272
        },
        {
            "buffer" : 0,
            "byteLength" : 34992,
            "byteOffset" : 954432
        },
        {
            "buffer" : 0,
            "byteLength" : 34992,
            "byteOffset" : 989424
        },
        {
            "buffer" : 0,
            "byteLength" : 23328,
            "byteOffset" : 1024416
        },
        {
            "buffer" : 0,
            "byteLength" : 17448,
            "byteOffset" : 1047744
        },
        {
            "buffer" : 0,
            "byteLength" : 2304,
            "byteOffset" : 1065192
        },
        {
            "buffer" : 0,
            "byteLength" : 2304,
            "byteOffset" : 1067496
        },
        {
            "buffer" : 0,
            "byteLength" : 1536,
            "byteOffset" : 1069800
        },
        {
            "buffer" : 0,
            "byteLength" : 576,
            "byteOffset" : 1071336
        },
        {
            "buffer" : 0,
            "byteLength" : 1188,
            "byteOffset" : 1071912
        },
        {
            "buffer" : 0,
            "byteLength" : 1188,
            "byteOffset" : 1073100
        },
        {
            "buffer" : 0,
            "byteLength" : 792,
            "byteOffset" : 1074288
        },
        {
            "buffer" : 0,
            "byteLength" : 768,
            "byteOffset" : 1075080
        },
        {
            "buffer" : 0,
            "byteLength" : 504,
            "byteOffset" : 1075848
        },
        {
            "buffer" : 0,
            "byteLength" : 504,
            "byteOffset" : 1076352
        },
        {
            "buffer" : 0,
            "byteLength" : 336,
            "byteOffset" : 1076856
        },
        {
            "buffer" : 0,
            "byteLength" : 192,
            "byteOffset" : 1077192
        },
        {
            "buffer" : 0,
            "byteLength" : 1872,
            "byteOffset" : 1077384
        },
        {
            "buffer" : 0,
            "byteLength" : 1872,
            "byteOffset" : 1079256
        },
        {
            "buffer" : 0,
            "byteLength" : 1248,
            "byteOffset" : 1081128
        },
        {
            "buffer" : 0,
            "byteLength" : 672,
            "byteOffset" : 1082376
        },
        {
            "buffer" : 0,
            "byteLength" : 2160,
            "byteOffset" : 1083048
        },
        {
            "buffer" : 0,
            "byteLength" : 2160,
            "byteOffset" : 1085208
        },
        {
            "buffer" : 0,
            "byteLength" : 1440,
            "byteOffset" : 1087368
        },
        {
            "buffer" : 0,
            "byteLength" : 816,
            "byteOffset" : 1088808
        },
        {
            "buffer" : 0,
            "byteLength" : 1776,
            "byteOffset" : 1089624
        },
        {
            "buffer" : 0,
            "byteLength" : 1776,
            "byteOffset" : 1091400
        },
        {
            "buffer" : 0,
            "byteLength" : 1184,
            "byteOffset" : 1093176
        },
        {
            "buffer" : 0,
            "byteLength" : 672,
            "byteOffset" : 1094360
        },
        {
            "buffer" : 0,
            "byteLength" : 936,
            "byteOffset" : 1095032
        },
        {
            "buffer" : 0,
            "byteLength" : 936,
            "byteOffset" : 1095968
        },
        {
            "buffer" : 0,
            "byteLength" : 624,
            "byteOffset" : 1096904
        },
        {
            "buffer" : 0,
            "byteLength" : 336,
            "byteOffset" : 1097528
        },
        {
            "buffer" : 0,
            "byteLength" : 9480,
            "byteOffset" : 1097864
        },
        {
            "buffer" : 0,
            "byteLength" : 9480,
            "byteOffset" : 1107344
        },
        {
            "buffer" : 0,
            "byteLength" : 6320,
            "byteOffset" : 1116824
        },
        {
            "buffer" : 0,
            "byteLength" : 6144,
            "byteOffset" : 1123144
        }
    ],
    "buffers" : [
        {
            "byteLength" : 1129288,
            "uri" : "data:application/octet-stream;base64,"
        }
    ]
}
