{
    "asset" : {
        "generator" : "Khronos glTF Blender I/O v1.5.17",
        "version" : "2.0"
    },
    "scene" : 0,
    "scenes" : [
        {
            "name" : "Scene",
            "nodes" : [
                0,
                1
            ]
        }
    ],
    "nodes" : [
        {
            "mesh" : 0,
            "name" : "001 Bogie"
        },
        {
            "mesh" : 1,
            "name" : "002 Fuseloge"
        }
    ],
    "materials" : [
        {
            "doubleSided" : true,
            "name" : "Material",
            "pbrMetallicRoughness" : {
                "baseColorFactor" : [
                    0.800000011920929,
                    0.800000011920929,
                    0.800000011920929,
                    1
                ],
                "metallicFactor" : 0,
                "roughnessFactor" : 0.5
            }
        }
    ],
    "meshes" : [
        {
            "name" : "001 Bogie",
            "primitives" : [
                {
                    "attributes" : {
                        "POSITION" : 0,
                        "NORMAL" : 1,
                        "TEXCOORD_0" : 2
                    },
                    "indices" : 3,
                    "material" : 0
                }
            ]
        },
        {
            "name" : "002 Fuseloge",
            "primitives" : [
                {
                    "attributes" : {
                        "POSITION" : 4,
                        "NORMAL" : 5,
                        "TEXCOORD_0" : 6
                    },
                    "indices" : 7,
                    "material" : 0
                }
            ]
        }
    ],
    "accessors" : [
        {
            "bufferView" : 0,
            "componentType" : 5126,
            "count" : 3531,
            "max" : [
                7.240972518920898,
                1.0740704536437988,
                2.2804839611053467
            ],
            "min" : [
                -7.183298110961914,
                -0.4134572148323059,
                -2.3018081188201904
            ],
            "type" : "VEC3"
        },
        {
            "bufferView" : 1,
            "componentType" : 5126,
            "count" : 3531,
            "type" : "VEC3"
        },
        {
            "bufferView" : 2,
            "componentType" : 5126,
            "count" : 3531,
            "type" : "VEC2"
        },
        {
            "bufferView" : 3,
            "componentType" : 5123,
            "count" : 12924,
            "type" : "SCALAR"
        },
        {
            "bufferView" : 4,
            "componentType" : 5126,
            "count" : 602,
            "max" : [
                7.090655326843262,
                -0.10199987888336182,
                1.5413742065429688
            ],
            "min" : [
                -6.562135696411133,
                -3.2060720920562744,
                -1.5626981258392334
            ],
            "type" : "VEC3"
        },
        {
            "bufferView" : 5,
            "componentType" : 5126,
            "count" : 602,
            "type" : "VEC3"
        },
        {
            "bufferView" : 6,
            "componentType" : 5126,
            "count" : 602,
            "type" : "VEC2"
        },
        {
            "bufferView" : 7,
            "componentType" : 5123,
            "count" : 3066,
            "type" : "SCALAR"
        }
    ],
    "bufferViews" : [
        {
            "buffer" : 0,
            "byteLength" : 42372,
            "byteOffset" : 0
        },
        {
            "buffer" : 0,
            "byteLength" : 42372,
            "byteOffset" : 42372
        },
        {
            "buffer" : 0,
            "byteLength" : 28248,
            "byteOffset" : 84744
        },
        {
            "buffer" : 0,
            "byteLength" : 25848,
            "byteOffset" : 112992
        },
        {
            "buffer" : 0,
            "byteLength" : 7224,
            "byteOffset" : 138840
        },
        {
            "buffer" : 0,
            "byteLength" : 7224,
            "byteOffset" : 146064
        },
        {
            "buffer" : 0,
            "byteLength" : 4816,
            "byteOffset" : 153288
        },
        {
            "buffer" : 0,
            "byteLength" : 6132,
            "byteOffset" : 158104
        }
    ],
    "buffers" : [
        {
            "byteLength" : 164236,
            "uri" : "data:application/octet-stream;base64,"
        }
    ]
}
